<?xml version="1.0" encoding="UTF-8"?>
<!DOCTYPE svg PUBLIC "-//W3C//DTD SVG 1.1//EN" "http://www.w3.org/Graphics/SVG/1.1/DTD/svg11.dtd">
<!-- Creator: CorelDRAW 2021 (64-Bit) -->
<svg xmlns="http://www.w3.org/2000/svg" xml:space="preserve" width="6.10239in" height="4.08661in" version="1.1" style="shape-rendering:geometricPrecision; text-rendering:geometricPrecision; image-rendering:optimizeQuality; fill-rule:evenodd; clip-rule:evenodd"
viewBox="0 0 4017.56 2690.46"
 xmlns:xlink="http://www.w3.org/1999/xlink"
 xmlns:xodm="http://www.corel.com/coreldraw/odm/2003">
 <defs>
  <style type="text/css">
   <![CDATA[
    .fil0 {fill:#01C38E}
   ]]>
  </style>
 </defs>
 <g id="Layer_x0020_1">
  <metadata id="CorelCorpID_0Corel-Layer"/>
  <path class="fil0" d="M2538.1 1055.9l1479.46 -715.71 -166.6 -340.19 -1126.78 552.82c-235.86,115.75 -492.16,192.18 -701.88,191 -164.65,-0.96 -295.98,-51.56 -323.95,-170.56l-116.03 -493.5 -556.29 282.66 112.2 666 1399.86 27.47zm-1773.36 1151.56l963.73 482.99 1300.68 -612.25 -284 -878.16 -1447.28 -40.03 -1297.87 638.84 19.28 378.55 1054.63 -511.97c230.79,-112.04 482.89,-182.62 694.24,-171.7 173.79,8.98 319.39,74.98 356,221.52l84.82 339.56 -499.09 245.66 -534.44 -292.38 -410.7 199.38z"/>
 </g>
</svg>
