<?xml version="1.0" encoding="UTF-8"?>
<!DOCTYPE svg PUBLIC "-//W3C//DTD SVG 1.1//EN" "http://www.w3.org/Graphics/SVG/1.1/DTD/svg11.dtd">
<!-- Creator: CorelDRAW 2021 (64-Bit) -->
<svg xmlns="http://www.w3.org/2000/svg" xml:space="preserve" width="8.83468in" height="5.91634in" version="1.1" style="shape-rendering:geometricPrecision; text-rendering:geometricPrecision; image-rendering:optimizeQuality; fill-rule:evenodd; clip-rule:evenodd"
viewBox="0 0 8834.69 5916.35"
 xmlns:xlink="http://www.w3.org/1999/xlink"
 xmlns:xodm="http://www.corel.com/coreldraw/odm/2003">
 <defs>
  <style type="text/css">
   <![CDATA[
    .fil0 {fill:url(#id0)}
   ]]>
  </style>
  <linearGradient id="id0" gradientUnits="userSpaceOnUse" x1="-1342.85" y1="3058.21" x2="10373.57" y2="2582.85">
   <stop offset="0" style="stop-opacity:1; stop-color:#132D46"/>
   <stop offset="0.619608" style="stop-opacity:1; stop-color:#0A786A"/>
   <stop offset="1" style="stop-opacity:1; stop-color:#01C38E"/>
  </linearGradient>
 </defs>
 <g id="Layer_x0020_1">
  <metadata id="CorelCorpID_0Corel-Layer"/>
  <path class="fil0" d="M5581.32 2321.94l3253.37 -1573.86 -366.35 -748.08 -2477.8 1215.66c-518.66,254.53 -1082.28,422.61 -1543.44,420.02 -362.08,-2.11 -650.86,-113.38 -712.37,-375.06l-255.15 -1085.22 -1223.29 621.58 246.72 1464.56 3078.31 60.4zm-3899.64 2532.3l2119.25 1062.11 2860.22 -1346.34 -624.51 -1931.1 -3182.61 -88.03 -2854.03 1404.81 42.41 832.45 2319.14 -1125.83c507.5,-246.38 1061.87,-401.58 1526.65,-377.58 382.17,19.75 702.36,164.87 782.86,487.13l186.52 746.69 -1097.51 540.21 -1175.25 -642.95 -903.14 438.43z"/>
 </g>
</svg>
