<svg width="1200" height="330" viewBox="0 0 1200 330" fill="none" xmlns="http://www.w3.org/2000/svg" role="img" aria-label="Living architecture: packets flow between the Next.js app, the five protocols on Arc Testnet, and the Envio indexer feeding analytics back.">
  <defs><linearGradient id="cbg" x1="0" y1="0" x2="0" y2="1"><stop offset="0%" stop-color="#F6FBF9"/><stop offset="100%" stop-color="#EDF6F2"/></linearGradient></defs>
  <rect width="1200" height="330" rx="18" fill="url(#cbg)" stroke="#D5E7DF"/>
  <text x="600" y="36" text-anchor="middle" font-family="-apple-system,'Segoe UI',Helvetica,Arial,sans-serif" font-size="13" font-weight="600" letter-spacing="3" fill="#6B8095">EVERY PACKET YOU SEE IS A PATH REAL VALUE TAKES</text>

  <g stroke="#C9DED5" stroke-width="1.6" fill="none">
    <path id="p1" d="M232 165 H340 C 370 165 380 120 410 120 H480"/>
    <path id="p2" d="M232 165 H340 C 370 165 380 210 410 210 H480"/>
    <path id="p3" d="M700 120 H770 C 800 120 810 165 840 165 H930"/>
    <path id="p4" d="M700 210 H770 C 800 210 810 165 840 165 H930"/>
    <path id="p5" d="M1015 195 C 1015 250 900 275 700 275 H500 C 300 275 232 240 232 195"/>
    <path id="p6" d="M590 92 V64 H960 V138"/>
  </g>

  
    <rect x="72" y="135" width="160" height="60" rx="12" fill="#FFFFFF" stroke="#0A9873" stroke-opacity="0.45">
      <animate attributeName="stroke-opacity" values="0.45;0.9;0.45" dur="4s" begin="0.8s" repeatCount="indefinite"/>
    </rect>
    <text x="152" y="159" text-anchor="middle" font-family="-apple-system,'Segoe UI',Helvetica,Arial,sans-serif" font-size="13" font-weight="700" fill="#132D46">NEXT.JS APP</text>
    <text x="152" y="176" text-anchor="middle" font-family="-apple-system,'Segoe UI',Helvetica,Arial,sans-serif" font-size="10" fill="#6B8095">xylonet.xyz</text>
  
    <rect x="480" y="92" width="220" height="56" rx="12" fill="#FFFFFF" stroke="#0A9873" stroke-opacity="0.45">
      <animate attributeName="stroke-opacity" values="0.45;0.9;0.45" dur="4s" begin="1.6s" repeatCount="indefinite"/>
    </rect>
    <text x="590" y="116" text-anchor="middle" font-family="-apple-system,'Segoe UI',Helvetica,Arial,sans-serif" font-size="13" font-weight="700" fill="#132D46">XYLOSWAP · VAULT</text>
    <text x="590" y="133" text-anchor="middle" font-family="-apple-system,'Segoe UI',Helvetica,Arial,sans-serif" font-size="10" fill="#6B8095">AMM + ERC-4626</text>
  
    <rect x="480" y="182" width="220" height="56" rx="12" fill="#FFFFFF" stroke="#BA7517" stroke-opacity="0.45">
      <animate attributeName="stroke-opacity" values="0.45;0.9;0.45" dur="4s" begin="1.6s" repeatCount="indefinite"/>
    </rect>
    <text x="590" y="206" text-anchor="middle" font-family="-apple-system,'Segoe UI',Helvetica,Arial,sans-serif" font-size="13" font-weight="700" fill="#132D46">PAYX · BRIDGE</text>
    <text x="590" y="223" text-anchor="middle" font-family="-apple-system,'Segoe UI',Helvetica,Arial,sans-serif" font-size="10" fill="#6B8095">tips + CCTP V2</text>
  
    <rect x="930" y="135" width="170" height="60" rx="12" fill="#FFFFFF" stroke="#185FA5" stroke-opacity="0.45">
      <animate attributeName="stroke-opacity" values="0.45;0.9;0.45" dur="4s" begin="2.4000000000000004s" repeatCount="indefinite"/>
    </rect>
    <text x="1015" y="159" text-anchor="middle" font-family="-apple-system,'Segoe UI',Helvetica,Arial,sans-serif" font-size="13" font-weight="700" fill="#132D46">ARC TESTNET</text>
    <text x="1015" y="176" text-anchor="middle" font-family="-apple-system,'Segoe UI',Helvetica,Arial,sans-serif" font-size="10" fill="#6B8095">chain 5042002 · USDC gas</text>

  <g transform="translate(545,247)">
    <rect x="0" y="0" width="180" height="56" rx="12" fill="#FFFFFF" stroke="#185FA5" stroke-opacity="0.45"/>
    <text x="90" y="24" text-anchor="middle" font-family="-apple-system,'Segoe UI',Helvetica,Arial,sans-serif" font-size="13" font-weight="700" fill="#132D46">ENVIO INDEXER</text>
    <text x="90" y="41" text-anchor="middle" font-family="-apple-system,'Segoe UI',Helvetica,Arial,sans-serif" font-size="10" fill="#6B8095">events → GraphQL → analytics</text>
  </g>

  <g transform="translate(996,60) scale(0.008)"><path d="M2538.1 1055.9l1479.46 -715.71 -166.6 -340.19 -1126.78 552.82c-235.86,115.75 -492.16,192.18 -701.88,191 -164.65,-0.96 -295.98,-51.56 -323.95,-170.56l-116.03 -493.5 -556.29 282.66 112.2 666 1399.86 27.47zm-1773.36 1151.56l963.73 482.99 1300.68 -612.25 -284 -878.16 -1447.28 -40.03 -1297.87 638.84 19.28 378.55 1054.63 -511.97c230.79,-112.04 482.89,-182.62 694.24,-171.7 173.79,8.98 319.39,74.98 356,221.52l84.82 339.56 -499.09 245.66 -534.44 -292.38 -410.7 199.38z" fill="#01C38E"/></g>

  
    <circle r="3.5" fill="#0A9873">
      <animateMotion dur="3.2s" begin="0s" repeatCount="indefinite" path="M232 165 H340 C 370 165 380 120 410 120 H480"/>
      <animate attributeName="opacity" values="0;1;1;0" keyTimes="0;0.08;0.92;1" dur="3.2s" begin="0s" repeatCount="indefinite"/>
    </circle>
  
    <circle r="3.5" fill="#BA7517">
      <animateMotion dur="3.6s" begin="1.1s" repeatCount="indefinite" path="M232 165 H340 C 370 165 380 210 410 210 H480"/>
      <animate attributeName="opacity" values="0;1;1;0" keyTimes="0;0.08;0.92;1" dur="3.6s" begin="1.1s" repeatCount="indefinite"/>
    </circle>
  
    <circle r="3.5" fill="#0A9873">
      <animateMotion dur="2.8s" begin="0.6s" repeatCount="indefinite" path="M700 120 H770 C 800 120 810 165 840 165 H930"/>
      <animate attributeName="opacity" values="0;1;1;0" keyTimes="0;0.08;0.92;1" dur="2.8s" begin="0.6s" repeatCount="indefinite"/>
    </circle>
  
    <circle r="3.5" fill="#BA7517">
      <animateMotion dur="3.1s" begin="1.8s" repeatCount="indefinite" path="M700 210 H770 C 800 210 810 165 840 165 H930"/>
      <animate attributeName="opacity" values="0;1;1;0" keyTimes="0;0.08;0.92;1" dur="3.1s" begin="1.8s" repeatCount="indefinite"/>
    </circle>
  
    <circle r="3.5" fill="#185FA5">
      <animateMotion dur="5.5s" begin="0.3s" repeatCount="indefinite" path="M1015 195 C 1015 250 900 275 700 275 H500 C 300 275 232 240 232 195"/>
      <animate attributeName="opacity" values="0;1;1;0" keyTimes="0;0.08;0.92;1" dur="5.5s" begin="0.3s" repeatCount="indefinite"/>
    </circle>
  
    <circle r="3.5" fill="#185FA5">
      <animateMotion dur="5.5s" begin="3s" repeatCount="indefinite" path="M1015 195 C 1015 250 900 275 700 275 H500 C 300 275 232 240 232 195"/>
      <animate attributeName="opacity" values="0;1;1;0" keyTimes="0;0.08;0.92;1" dur="5.5s" begin="3s" repeatCount="indefinite"/>
    </circle>
  
    <circle r="3.5" fill="#0A9873">
      <animateMotion dur="3.4s" begin="2.2s" repeatCount="indefinite" path="M590 92 V64 H960 V138"/>
      <animate attributeName="opacity" values="0;1;1;0" keyTimes="0;0.08;0.92;1" dur="3.4s" begin="2.2s" repeatCount="indefinite"/>
    </circle>

  <text x="600" y="322" text-anchor="middle" font-family="-apple-system,'Segoe UI',Helvetica,Arial,sans-serif" font-size="10.5" fill="#6B8095">app → contracts → chain → indexer → analytics → back to the app. the loop never stops.</text>
</svg>