<?xml version="1.0" encoding="UTF-8"?>
<!DOCTYPE svg PUBLIC "-//W3C//DTD SVG 1.1//EN" "http://www.w3.org/Graphics/SVG/1.1/DTD/svg11.dtd">
<!-- Creator: CorelDRAW 2021 (64-Bit) -->
<svg xmlns="http://www.w3.org/2000/svg" xml:space="preserve" width="8.01823in" height="10.9452in" version="1.1" style="shape-rendering:geometricPrecision; text-rendering:geometricPrecision; image-rendering:optimizeQuality; fill-rule:evenodd; clip-rule:evenodd"
viewBox="0 0 13252.03 18089.51"
 xmlns:xlink="http://www.w3.org/1999/xlink"
 xmlns:xodm="http://www.corel.com/coreldraw/odm/2003">
 <defs>
  <style type="text/css">
   <![CDATA[
    .fil0 {fill:#1A1E29}
   ]]>
  </style>
 </defs>
 <g id="Layer_x0020_1">
  <metadata id="CorelCorpID_0Corel-Layer"/>
  <path class="fil0" d="M-0 3785.19l6429.81 -3785.19 6314.2 3678.98 -5664.29 4463.37 -1281.03 -1251.25 4004.73 -3122.55 -3327.85 -1905.41 -4839.4 2844.89 35.66 7299.77 -1621.4 1015.48 -50.43 -9238.1zm6815.87 7886.46l-3398.14 2160.2 3314.75 2404.34 2968.82 -1745.24 -2885.43 -2819.3zm104.44 -2174.4l6316.32 -4750.34 0 2053.94 -5138.69 3846.63 3059.07 2987.74 430.98 -253.39 -13.26 -617.56 1608.46 -976.38 53.18 2478.73 15.65 27.08 -6456.85 3795.8 -6602.77 -4092.59 5325.38 -3593.56 -1917.47 -1873.59 1237.21 -1066.74 2082.79 2034.23z"/>
 </g>
</svg>
