<?xml version="1.0" encoding="UTF-8"?>
<!DOCTYPE svg PUBLIC "-//W3C//DTD SVG 1.1//EN" "http://www.w3.org/Graphics/SVG/1.1/DTD/svg11.dtd">
<!-- Creator: CorelDRAW 2021 (64-Bit) -->
<svg xmlns="http://www.w3.org/2000/svg" xml:space="preserve" width="7.36027in" height="10.047in" version="1.1" style="shape-rendering:geometricPrecision; text-rendering:geometricPrecision; image-rendering:optimizeQuality; fill-rule:evenodd; clip-rule:evenodd"
viewBox="0 0 5146.17 7024.71"
 xmlns:xlink="http://www.w3.org/1999/xlink"
 xmlns:xodm="http://www.corel.com/coreldraw/odm/2003">
 <defs>
  <style type="text/css">
   <![CDATA[
    .fil0 {fill:#01C38E}
   ]]>
  </style>
 </defs>
 <g id="Layer_x0020_1">
  <metadata id="CorelCorpID_0Corel-Layer"/>
  <path class="fil0" d="M-0 1469.9l2496.89 -1469.9 2451.99 1428.66 -2199.62 1733.26 -497.46 -485.9 1555.16 -1212.58 -1292.31 -739.93 -1879.29 1104.75 13.85 2834.73 -629.64 394.34 -19.58 -3587.43zm2646.81 3062.55l-1319.6 838.87 1287.22 933.68 1152.88 -677.73 -1120.5 -1094.82zm40.56 -844.38l2452.82 -1844.7 0 797.61 -1995.51 1493.77 1187.93 1160.23 167.36 -98.4 -5.15 -239.82 624.61 -379.16 20.65 962.57 6.08 10.52 -2507.39 1474.02 -2564.06 -1589.28 2068.01 -1395.49 -744.61 -727.57 480.45 -414.25 808.81 789.95z"/>
 </g>
</svg>
