<?xml version="1.0" encoding="UTF-8"?>
<!DOCTYPE svg PUBLIC "-//W3C//DTD SVG 1.1//EN" "http://www.w3.org/Graphics/SVG/1.1/DTD/svg11.dtd">
<!-- Creator: CorelDRAW 2021 (64-Bit) -->
<svg xmlns="http://www.w3.org/2000/svg" xml:space="preserve" width="7.57869in" height="10.3452in" version="1.1" style="shape-rendering:geometricPrecision; text-rendering:geometricPrecision; image-rendering:optimizeQuality; fill-rule:evenodd; clip-rule:evenodd"
viewBox="0 0 7578.69 10345.18"
 xmlns:xlink="http://www.w3.org/1999/xlink"
 xmlns:xodm="http://www.corel.com/coreldraw/odm/2003">
 <defs>
  <style type="text/css">
   <![CDATA[
    .fil0 {fill:url(#id0)}
   ]]>
  </style>
  <linearGradient id="id0" gradientUnits="userSpaceOnUse" x1="-1158.21" y1="5032.08" x2="8905.06" y2="4831.78">
   <stop offset="0" style="stop-opacity:1; stop-color:#132D46"/>
   <stop offset="0.619608" style="stop-opacity:1; stop-color:#0A786A"/>
   <stop offset="1" style="stop-opacity:1; stop-color:#01C38E"/>
  </linearGradient>
 </defs>
 <g id="Layer_x0020_1">
  <metadata id="CorelCorpID_0Corel-Layer"/>
  <path class="fil0" d="M-0 2164.7l3677.14 -2164.7 3611.01 2103.96 -3239.34 2552.55 -732.61 -715.57 2290.26 -1785.75 -1903.16 -1089.68 -2767.59 1626.95 20.39 4174.66 -927.26 580.74 -28.84 -5283.16zm3897.92 4510.18l-1943.35 1235.4 1895.67 1375.01 1697.83 -998.08 -1650.15 -1612.33zm59.73 -1243.51l3612.24 -2716.67 0 1174.62 -2938.76 2199.85 1749.45 1708.66 246.47 -144.91 -7.58 -353.18 919.85 -558.38 30.42 1417.56 8.95 15.49 -3692.6 2170.77 -3776.05 -2340.51 3045.52 -2055.11 -1096.58 -1071.49 707.55 -610.06 1191.12 1163.35z"/>
 </g>
</svg>
