<?xml version="1.0" encoding="UTF-8"?>
<!DOCTYPE svg PUBLIC "-//W3C//DTD SVG 1.1//EN" "http://www.w3.org/Graphics/SVG/1.1/DTD/svg11.dtd">
<!-- Creator: CorelDRAW 2021 (64-Bit) -->
<svg xmlns="http://www.w3.org/2000/svg" xml:space="preserve" width="8.78322in" height="11.9894in" version="1.1" style="shape-rendering:geometricPrecision; text-rendering:geometricPrecision; image-rendering:optimizeQuality; fill-rule:evenodd; clip-rule:evenodd"
viewBox="0 0 8783.22 11989.38"
 xmlns:xlink="http://www.w3.org/1999/xlink"
 xmlns:xodm="http://www.corel.com/coreldraw/odm/2003">
 <defs>
  <style type="text/css">
   <![CDATA[
    .fil0 {fill:white}
   ]]>
  </style>
 </defs>
 <g id="Layer_x0020_1">
  <metadata id="CorelCorpID_0Corel-Layer"/>
  <g id="_2180527641472">
   <polygon class="fil0" points="-0,2508.72 4261.56,0 8446.49,2438.33 4692.32,5396.59 3843.26,4567.29 6497.52,2497.73 4291.9,1234.86 1084.43,3120.39 1108.07,7958.55 33.44,8631.59 "/>
   <path class="fil0" d="M4517.43 7735.74l-2252.22 1431.74 2196.98 1593.58 1967.67 -1156.73 -1912.43 -1868.59zm69.23 -1441.13l4186.35 -3148.45 0 1361.31 -3405.81 2549.46 2027.48 1980.24 285.64 -167.93 -8.79 -409.33 1066.06 -647.13 35.27 1642.88 10.36 17.95 -4279.48 2515.76 -4376.2 -2712.49 3529.57 -2381.75 -1270.88 -1241.78 820 -707 1380.43 1348.26z"/>
  </g>
 </g>
</svg>
